PathFileType	4	(X/Y/Z)	Patient4_TMGait_0pt8_01_left_18.trc.trc
DataRate	CameraRate	NumFrames	NumMarkers	Units	OrigDataRate	OrigDataStartFrame	OrigNumFrames
89.171974522293	89.171974522293	4	33	mm	89.171974522293	71	       141
Frame#	Time	Sacral			L.Shoulder			Chest			R.Shoulder			Neck			R.ASIS			L.ASIS			R.Thigh.Superior			R.Thigh.Lateral			R.Thigh.Inferior			R.Patella			L.Thigh.Superior			L.Thigh.Lateral			L.Thigh.Inferior			L.Patella			L.Shank.Superior			L.Shank.Lateral			L.Shank.Inferior			R.Shank.Superior			R.Shank.Lateral			R.Shank.Inferior			R.Heel			R.Midfoot.Superior			R.Midfoot.Lateral			R.Toe			L.Heel			L.Midfoot.Lateral			L.Midfoot.Superior			L.Toe			L.Elbow			L.Wrist			R.Elbow			R.Wrist			
		X1	Y1	Z1	X2	Y2	Z2	X3	Y3	Z3	X4	Y4	Z4	X5	Y5	Z5	X6	Y6	Z6	X7	Y7	Z7	X8	Y8	Z8	X9	Y9	Z9	X10	Y10	Z10	X11	Y11	Z11	X12	Y12	Z12	X13	Y13	Z13	X14	Y14	Z14	X15	Y15	Z15	X16	Y16	Z16	X17	Y17	Z17	X18	Y18	Z18	X19	Y19	Z19	X20	Y20	Z20	X21	Y21	Z21	X22	Y22	Z22	X23	Y23	Z23	X24	Y24	Z24	X25	Y25	Z25	X26	Y26	Z26	X27	Y27	Z27	X28	Y28	Z28	X29	Y29	Z29	X30	Y30	Z30	X31	Y31	Z31	X32	Y32	Z32	X33	Y33	Z33	

71	20.195000000000	915.101852338056	993.630434967178	404.078699703118	1115.504630637616	1430.275714840660	256.633610928342	1190.329618629212	1357.047695503258	430.419940639159	1076.565102528233	1423.313132095768	590.021062443028	1069.799708417334	1484.255847601140	409.744971904381	1130.358506069197	935.175533220057	548.479865217023	1144.701486657028	954.093996319169	272.830907683461	1210.860095706342	765.978665016186	522.546902432848	1171.178597437621	644.535886816010	599.518911223870	1262.690013783791	608.466627922311	522.206155722035	1299.952848918511	528.508478577929	544.324303821653	1135.160869733113	722.183122453909	300.938507840366	1015.570305752148	631.819790356728	232.915993332165	1066.725715657575	536.558787503811	301.723479440539	1048.063350464647	471.411222314224	311.048368469001	1013.303672172933	406.122080659677	303.211031905438	911.354189004407	303.841970972670	251.082111958702	943.535130335497	188.286725183273	326.350641084790	1286.700171367307	439.335245056744	555.676686561799	1235.002907936622	323.808258889341	617.364007982418	1311.064483293336	240.423823090165	570.647711110456	1229.465395825662	48.869240171724	538.012903313549	1385.994940581916	129.633175744225	589.079246048872	1308.339598717012	51.105264960184	618.013428710078	1509.619009134661	97.718724386195	624.801965760007	800.963592399739	40.386631252663	370.763150599777	874.733100795195	35.793084639577	290.669420010047	958.886312295811	95.657523116247	317.695201780001	1086.711423837921	41.144765583126	289.200551206661	1229.327442732964	1124.986460916978	98.544793582092	1480.753164646315	1131.172936746123	150.634072101202	899.434560841307	1125.116401375758	673.980308926853	834.282410494509	872.912474676764	683.094764652364	
72	20.206214285714	916.715887550359	991.179113712461	406.418940114445	1115.619415676729	1428.096527224861	258.513745838897	1190.588589807982	1355.486776126069	432.452073878324	1076.448517061691	1421.743531803118	591.789862859951	1069.732715594917	1482.107429027166	411.493189226246	1132.257722969051	932.825588100191	550.857207582892	1146.361469575952	952.109920763020	275.248195595918	1211.907948006700	762.497296034476	524.917864037839	1170.187380088992	640.587329657031	600.446147076325	1262.102116208793	604.741476075208	523.718940556532	1298.098780091338	525.002753516898	544.555622320738	1134.939258015396	719.915894353771	302.520538793518	1014.339513528404	630.662565669398	234.370851901155	1064.480159346408	534.786811916416	303.158249869075	1045.095365195325	469.381915822503	312.317401012928	1009.316561942263	404.542996892621	304.261734745146	905.772193361207	303.903932342623	251.804723858520	936.144996130288	187.693654466031	326.688481558600	1285.824868064246	435.680488231740	555.725684952517	1234.511982052616	319.466596605237	616.199297920612	1311.645809928068	237.027289912384	569.515046659311	1231.605679752031	45.766085764870	535.977985508179	1387.548369413656	126.697945863401	587.000070260059	1310.290056079252	48.369668099011	616.093604914909	1511.362780197500	95.352224356922	622.977071674623	791.943959266422	40.753359560247	370.565159091274	865.800137979425	35.907110218828	290.599088500984	950.048223714632	95.627731194174	317.700033200175	1077.779881506813	40.821890980139	289.112314999162	1231.011708743842	1124.237709183201	99.641965990018	1481.041083911618	1140.367971015177	153.450753167952	895.402813311479	1126.736667602205	674.760974112174	826.661441497265	875.396183605892	682.827848966687	
73	20.217428571429	918.418772322891	988.749610753423	409.103249205953	1115.636683473467	1425.892209748361	260.464973601024	1190.895675205041	1353.993005501081	434.536424740814	1076.437203206633	1420.178358120263	593.696257654579	1069.717657241232	1479.998150658698	413.347074926163	1134.318069470088	930.499074483368	553.360965007829	1148.048487444585	950.128334195210	277.803731431673	1213.513586997196	759.363555021638	527.468095558858	1169.609827921291	636.815303768518	601.156417940354	1262.215417343000	601.457758477304	525.306879826147	1296.806179214910	521.474432135666	544.708084809709	1135.175290250458	717.707954266684	304.198350376721	1013.670720514640	629.412627419737	236.065731830916	1063.039061290339	532.928366079985	304.718185833852	1043.008477636425	467.132611851490	313.708450074656	1006.055531663856	402.798148980109	305.417551483668	900.666346798355	304.049782629085	252.633046670781	928.997448023370	187.103285204718	327.025705548144	1284.921773110861	431.871142869255	555.603986765460	1233.162534685328	315.392456493896	614.864265669547	1310.588056469914	233.336020536371	568.160052010081	1230.364175809663	43.467910086639	533.788367241586	1386.419120024661	122.999924182854	584.638369655425	1308.807302817333	45.850556219762	614.076225766926	1510.057760761358	91.059772838414	621.009580798820	782.919625311695	41.355257880703	370.297408159839	856.890280040047	36.090559668150	290.485393069154	941.301061254704	95.637117133880	317.642930871966	1068.891673225854	40.477549613273	289.003184407290	1232.175866608993	1123.134559392420	100.894390003400	1480.582392394716	1148.251135986531	156.241506558086	892.526109530224	1127.606646725814	675.714505460598	820.700858127541	877.050720806340	682.798591840364	
74	20.228642857143	920.179368471989	986.425362779947	412.089141018973	1115.588178116074	1423.738256594962	262.491396732525	1191.275076086474	1352.615209810449	436.674041864301	1076.566881384405	1418.668577304657	595.751565566699	1069.786999739287	1478.007462361549	415.315252528719	1136.508667628120	928.296699073967	555.968698030341	1149.743488177558	948.218224577711	280.470343459846	1215.618522668562	756.635305217054	530.163827500216	1169.446705206460	633.363015222588	601.727503011799	1262.959238268519	598.678289817243	526.969683371287	1296.065490191461	518.053294122866	544.836022953806	1135.862086671405	715.625662764966	305.960861882911	1013.567675596681	628.107173499757	237.996456389497	1062.455814542978	531.019292353262	306.373119316200	1041.879489496018	464.679056169108	315.156708432352	1003.542678472657	400.921228257566	306.642003422697	896.058047402514	304.348662203441	253.557516391996	922.129825299405	186.578029464766	327.323568428322	1284.066656376233	428.072148926842	555.387038626723	1231.238620847687	311.687497907940	613.570228431243	1308.222396118532	229.503013532881	566.725841574545	1226.252515093895	41.903083290500	531.673739780657	1383.064189596721	118.766165974246	582.184217672200	1304.464143900031	43.584775616504	612.152759435047	1506.253551303065	85.248165617805	618.987049662860	773.910408909264	42.306539637110	369.953950149531	848.010534708260	36.388528807956	290.323445967040	932.690577879640	95.700129050698	317.489885584559	1060.050760036694	40.127078165677	288.874327314705	1232.767455484999	1121.678961248604	102.332882041098	1479.459957803289	1154.761182748618	158.993430745439	890.875096108446	1127.683816745627	676.869101711079	816.472867088945	877.819453973640	683.051125568592	
